<svg width="150" height="31" viewBox="0 0 150 31" fill="none" xmlns="http://www.w3.org/2000/svg">
<path fill-rule="evenodd" clip-rule="evenodd" d="M3.89786 15.5365C3.49201 14.742 3.43573 13.7716 3.43547 7.57264L3.43494 2.99841L0 0.513637V7.76053C0 16.0086 0.17756 16.966 2.04617 18.7873C3.38209 20.0896 4.93971 20.6047 7.53044 20.6011C11.1464 20.5955 13.5851 18.2507 14.1366 17.508C15.0603 16.2642 15.193 14.6296 15.2093 13.0804C15.2339 10.7475 15.2776 7.96847 15.2776 7.96847L15.3618 0.513637L11.914 2.99841L11.836 7.75182C11.762 14.6335 11.7306 15.0267 11.2019 15.7344C10.3117 16.9264 9.10972 17.4845 7.38301 17.508C5.59842 17.5323 4.63981 16.99 3.89786 15.5365ZM37.9164 20.6712L37.9883 15.6064C38.0277 12.8206 38.0277 8.27564 37.9883 5.50666L37.9164 0.47168L34.6136 2.99841V7.95739C34.6136 10.6849 34.5492 12.9164 34.4704 12.9164C34.3914 12.9164 31.3454 10.1793 27.7015 6.83402C24.0573 3.48898 21.0113 0.816054 20.9325 0.894693C20.7359 1.09103 20.6834 19.9975 20.8786 20.3132C20.965 20.4525 21.7424 19.9981 22.6061 19.3035L24.1767 18.0403L24.4409 8.66408L37.9164 20.6712ZM45.6546 19.1275L47.0322 18.0814V0.513637H43.5973V10.5546C43.5973 18.6715 43.6623 20.5549 43.9371 20.3844C44.1242 20.2683 44.897 19.7025 45.6546 19.1275ZM73.9833 3.94418H87.4588V0.513637H73.9833V3.94418ZM108.295 6.7976C108.434 3.74125 107.56 2.15054 105.138 1.05303C104.095 0.580403 103.401 0.524723 98.4903 0.519445L93.0076 0.513637V3.94418H98.304C103.575 3.94418 103.604 3.94735 104.249 4.59203C104.761 5.10291 104.898 5.51194 104.898 6.53028C104.898 8.73427 104.715 8.80315 98.4633 8.95805L93.1397 9.09L92.9825 12.3886L100.538 12.3923L105.03 20.8182L106.769 20.8256C107.726 20.8296 108.58 20.7618 108.667 20.6747C108.87 20.4723 108.32 19.2497 108.026 19.2497C107.904 19.2497 107.802 19.1014 107.8 18.9198C107.798 18.7385 107.049 17.2317 106.135 15.5716L104.474 12.553L105.545 11.9885C106.214 11.6357 106.913 10.9443 107.408 10.1458C108.076 9.06862 108.215 8.54216 108.295 6.7976ZM125.22 3.23696C125.494 3.03166 124.222 2.02413 122.782 1.30557C121.455 0.643208 120.889 0.515486 119.322 0.52525C115.527 0.548736 113.324 2.08377 112.568 5.23196C112.172 6.8802 112.539 8.35164 113.668 9.63466C114.73 10.8427 115.427 11.1861 118.266 11.897C119.771 12.2741 120.82 12.6973 121.207 13.0837C122.293 14.1685 121.84 16.0603 120.306 16.8438C119.351 17.3315 117.361 17.1974 116.243 16.5696L115.229 16.001L114.035 16.8995C113.378 17.3938 112.837 17.9408 112.833 18.1147C112.822 18.5345 114.315 19.6545 115.6 20.1907C117.112 20.8217 120.133 20.7504 121.726 20.0466C123.392 19.3104 124.125 18.6039 124.879 17.0066C125.926 14.7889 125.584 12.4092 123.974 10.715C122.981 9.66976 121.67 9.052 119.682 8.69179C117.162 8.23553 116.342 7.82439 116.143 6.91714C115.728 5.0314 117.191 3.80274 119.614 4.00356C120.523 4.07876 121.319 4.33289 121.832 4.71157L122.632 5.30215L123.871 4.31019C124.553 3.76447 125.16 3.28156 125.22 3.23696ZM148.379 6.45455C147.342 4.34529 145.469 2.52526 143.274 1.49372C138.339 -0.825591 132.447 1.38816 130.079 6.45112C129.423 7.85394 129.339 8.33528 129.339 10.6733C129.339 13.081 129.408 13.4497 130.131 14.8805C134.02 22.5744 144.667 22.5063 148.341 14.7644C149.073 13.222 149.156 12.7945 149.156 10.5414C149.156 8.3015 149.073 7.86608 148.379 6.45455ZM132.647 10.6374C132.637 7.84787 134.441 5.25491 137.035 4.33157C141.331 2.80208 145.815 6.03312 145.835 10.6733C145.85 14.1097 142.818 17.1293 139.347 17.1359C135.509 17.1433 132.661 14.3802 132.647 10.6374ZM73.9833 12.3986L86.0056 12.2567V8.82611L73.9833 8.68414V12.3986ZM73.9833 20.833H87.4588V17.1386H73.9833V20.833Z" fill="#24211F"/>
<path d="M60.5538 12.7002C60.4557 12.7989 59.0677 10.0986 57.4692 6.69891L55.729 2.99841L50.4672 0.644787C50.4672 0.906037 60.3762 20.5691 60.5078 20.5691C60.6394 20.5691 70.5484 0.906037 70.5484 0.644787L65.2224 2.99841L63.563 6.51709C62.0057 9.81886 60.6515 12.6013 60.5538 12.7002Z" fill="#24211F"/>
<path d="M68.4713 0.513637H66.3942L65.2224 2.99841L70.5484 0.644787C70.5484 0.572482 69.6138 0.513637 68.4713 0.513637Z" fill="#24211F"/>
<path d="M52.5149 0.515748C51.3888 0.514692 50.4672 0.572482 50.4672 0.644787L55.729 2.99841L54.5627 0.518125L52.5149 0.515748Z" fill="#24211F"/>
<path d="M57.0415 25.8276V30.5282H56.3323V25.8276H57.0415Z" fill="#24211F"/>
<path d="M74.795 25.8276V30.5282H74.1431L71.7538 27.0808H71.7102V30.5282H71.001V25.8276H71.6574L74.049 29.2796H74.0926V25.8276H74.795Z" fill="#24211F"/>
<path d="M88.7562 30.5282V25.8276H89.4654V28.0724H89.5228L91.4944 25.8276H92.3872L90.4914 27.9438L92.3941 30.5282H91.5403L90.0209 28.4281L89.4654 29.0662V30.5282H88.7562Z" fill="#24211F"/>
</svg>
